<svg xmlns="http://www.w3.org/2000/svg" viewBox="0 0 32 32">
  <rect width="32" height="32" fill="none"/>
  <rect x="10" y="8" width="4" height="4" fill="#E53935"/>
  <rect x="18" y="8" width="4" height="4" fill="#E53935"/>
  <rect x="6" y="12" width="20" height="4" fill="#E53935"/>
  <rect x="8" y="16" width="16" height="4" fill="#FFCC80"/>
  <rect x="10" y="16" width="4" height="2" fill="#FFFFFF"/>
  <rect x="18" y="16" width="4" height="2" fill="#FFFFFF"/>
  <rect x="10" y="18" width="4" height="2" fill="#000000"/>
  <rect x="18" y="18" width="4" height="2" fill="#000000"/>
  <rect x="6" y="20" width="20" height="4" fill="#1565C0"/>
  <rect x="8" y="24" width="16" height="4" fill="#1565C0"/>
  <rect x="10" y="28" width="4" height="4" fill="#FDD835"/>
  <rect x="18" y="28" width="4" height="4" fill="#FDD835"/>
  <rect x="10" y="8" width="4" height="1" fill="#EF5350"/>
  <rect x="18" y="8" width="4" height="1" fill="#EF5350"/>
  <rect x="6" y="12" width="4" height="1" fill="#EF5350"/>
  <rect x="6" y="20" width="2" height="4" fill="#1E88E5"/>
</svg>
