<svg xmlns="http://www.w3.org/2000/svg" viewBox="0 0 32 32">
  <rect width="32" height="32" fill="#4A1A08"/>
  <rect x="0" y="0" width="12" height="8" fill="#B85C2A"/>
  <rect x="16" y="0" width="12" height="8" fill="#B85C2A"/>
  <rect x="4" y="12" width="12" height="8" fill="#B85C2A"/>
  <rect x="20" y="12" width="12" height="8" fill="#B85C2A"/>
  <rect x="0" y="24" width="12" height="8" fill="#B85C2A"/>
  <rect x="16" y="24" width="12" height="8" fill="#B85C2A"/>
  <rect x="8" y="0" width="4" height="8" fill="#8E4019"/>
  <rect x="24" y="0" width="4" height="8" fill="#8E4019"/>
  <rect x="12" y="12" width="4" height="8" fill="#8E4019"/>
  <rect x="28" y="12" width="4" height="8" fill="#8E4019"/>
  <rect x="8" y="24" width="4" height="8" fill="#8E4019"/>
  <rect x="24" y="24" width="4" height="8" fill="#8E4019"/>
  <rect x="0" y="4" width="12" height="4" fill="#8E4019"/>
  <rect x="16" y="4" width="12" height="4" fill="#8E4019"/>
  <rect x="4" y="16" width="12" height="4" fill="#8E4019"/>
  <rect x="20" y="16" width="12" height="4" fill="#8E4019"/>
  <rect x="0" y="28" width="12" height="4" fill="#8E4019"/>
  <rect x="16" y="28" width="12" height="4" fill="#8E4019"/>
  <rect x="8" y="4" width="4" height="4" fill="#4A1A08"/>
  <rect x="24" y="4" width="4" height="4" fill="#4A1A08"/>
  <rect x="12" y="16" width="4" height="4" fill="#4A1A08"/>
  <rect x="28" y="16" width="4" height="4" fill="#4A1A08"/>
  <rect x="8" y="28" width="4" height="4" fill="#4A1A08"/>
  <rect x="24" y="28" width="4" height="4" fill="#4A1A08"/>
</svg>
