<svg xmlns="http://www.w3.org/2000/svg" viewBox="0 0 32 32">
  <rect width="32" height="32" fill="none"/>
  <rect x="8" y="0" width="16" height="4" fill="#E53935"/>
  <rect x="4" y="4" width="24" height="8" fill="#E53935"/>
  <rect x="0" y="12" width="4" height="8" fill="#1565C0"/>
  <rect x="28" y="12" width="4" height="8" fill="#1565C0"/>
  <rect x="8" y="12" width="16" height="8" fill="#FFCC80"/>
  <rect x="8" y="12" width="4" height="4" fill="#FFFFFF"/>
  <rect x="20" y="12" width="4" height="4" fill="#FFFFFF"/>
  <rect x="8" y="16" width="4" height="4" fill="#000000"/>
  <rect x="20" y="16" width="4" height="4" fill="#000000"/>
  <rect x="12" y="16" width="8" height="4" fill="#5D4037"/>
  <rect x="4" y="20" width="24" height="4" fill="#1565C0"/>
  <rect x="0" y="24" width="8" height="4" fill="#1565C0"/>
  <rect x="8" y="24" width="16" height="4" fill="#1565C0"/>
  <rect x="24" y="24" width="8" height="4" fill="#1E88E5"/>
  <rect x="28" y="28" width="4" height="4" fill="#0D47A1"/>
  <rect x="8" y="28" width="16" height="4" fill="#FDD835"/>
  <rect x="12" y="28" width="8" height="4" fill="#F9A825"/>
  <rect x="4" y="28" width="8" height="4" fill="#6D4C41"/>
  <rect x="20" y="28" width="8" height="4" fill="#6D4C41"/>
</svg>
